<?xml version="1.0" encoding="UTF-8"?>
<svg version="1.1" xmlns="http://www.w3.org/2000/svg" width="50" height="50">
<path d="M0 0 C2.80483008 0.58269357 4.98640869 1.55238565 7.046875 3.578125 C9.68208997 7.81203705 10.37544317 12.53816048 10.21875 17.4609375 C9.22427805 19.71453925 8.17025718 21.18318748 6.48046875 22.9609375 C4.98401385 24.74000463 4.63326588 26.19816847 4.21875 28.4609375 C5.58 28.80125 5.58 28.80125 6.96875 29.1484375 C10.80579162 30.698012 12.10071495 31.93087908 14.21875 35.4609375 C14.71375 38.9259375 14.71375 38.9259375 15.21875 42.4609375 C8.94875 42.7909375 2.67875 43.1209375 -3.78125 43.4609375 C-4.11125 44.1209375 -4.44125 44.7809375 -4.78125 45.4609375 C-7.75125 45.4609375 -10.72125 45.4609375 -13.78125 45.4609375 C-13.78125 44.4709375 -13.78125 43.4809375 -13.78125 42.4609375 C-15.43125 42.4609375 -17.08125 42.4609375 -18.78125 42.4609375 C-17.89190574 35.85438012 -17.89190574 35.85438012 -17.21875 33.4609375 C-16.64193292 31.25127394 -16.64193292 31.25127394 -16.96875 28.0859375 C-16.74364044 23.73381937 -15.20799454 21.98363119 -12.78125 18.4609375 C-13.07676001 17.11871445 -13.41442461 15.78544798 -13.78125 14.4609375 C-13.43425473 9.84259567 -12.30767538 6.24259943 -9.71875 2.3984375 C-6.23654948 0.10166694 -4.10884189 -0.28761893 0 0 Z " fill="#666E6F" transform="translate(26.78125,2.5390625)"/>
<path d="M0 0 C4.18978063 2.13297923 5.41774194 3.3687532 6.984375 7.7578125 C8.70118193 15.36898987 8.70118193 15.36898987 7.1015625 19.08984375 C5.8125 20.8125 5.8125 20.8125 4.37109375 22.40234375 C2.86421339 24.15822428 2.18133708 25.71750348 1.375 27.875 C0.92125 28.90625 0.4675 29.9375 0 31 C-0.99 31.33 -1.98 31.66 -3 32 C-2.9175 30.7625 -2.835 29.525 -2.75 28.25 C-2.76615542 25.20739543 -2.87223162 24.19931867 -4.5625 21.5625 C-7.67149574 19.56955401 -10.36407088 19.40399212 -14 19 C-14.66 18.34 -15.32 17.68 -16 17 C-15.86075905 11.45493391 -14.91646587 6.44412804 -11.9375 1.75 C-7.84004275 -0.69103836 -4.64704203 -0.96540662 0 0 Z " fill="#F8B148" transform="translate(29,3)"/>
<path d="M0 0 C4.40938215 0.50392939 6.78843816 1.9620361 10 5 C12.27972778 8.36531244 12 9.57866496 12 14 C5.73 14 -0.54 14 -7 14 C-7.33 12.35 -7.66 10.7 -8 9 C-8.66 8.34 -9.32 7.68 -10 7 C-9.36191406 6.66226563 -8.72382813 6.32453125 -8.06640625 5.9765625 C-7.24011719 5.53054687 -6.41382813 5.08453125 -5.5625 4.625 C-4.73878906 4.18414062 -3.91507813 3.74328125 -3.06640625 3.2890625 C-0.86533422 2.16581441 -0.86533422 2.16581441 0 0 Z " fill="#039AE4" transform="translate(30,31)"/>
<path d="M0 0 C3.00115041 1.30403417 3.80429499 2.31026136 6 5 C6.75554196 8.01209393 6.98649448 10.90048411 7 14 C6.01 14.33 5.02 14.66 4 15 C3.690625 14.030625 3.38125 13.06125 3.0625 12.0625 C2.30476658 9.15934208 2.30476658 9.15934208 1 8 C-3.39450749 8.43945075 -7.68330172 9.05572225 -12 10 C-12 11.65 -12 13.3 -12 15 C-12.99 14.67 -13.98 14.34 -15 14 C-14.88766782 9.31268454 -14.60567584 5.92744112 -12 1.9375 C-7.89924513 -0.71090419 -4.7496266 -1.01002604 0 0 Z " fill="#484542" transform="translate(29,3)"/>
<path d="M0 0 C1.9375 1.125 1.9375 1.125 3 3 C3.54624158 6.66762206 3.47898298 8.3258758 1.3125 11.375 C-1 13 -1 13 -3.5 13.5 C-6.87013879 12.82597224 -8.01677007 11.7912125 -10 9 C-10.45319325 5.82764724 -10.52990283 3.93512264 -8.9375 1.125 C-5.8930714 -0.64273274 -3.4368988 -0.36823916 0 0 Z " fill="#64B1EE" transform="translate(22,24)"/>
<path d="M0 0 C0.99 0 1.98 0 3 0 C3 0.66 3 1.32 3 2 C4.65 2 6.3 2 8 2 C8.125 7.75 8.125 7.75 7 10 C4.03 10 1.06 10 -2 10 C-2.1953125 3.9453125 -2.1953125 3.9453125 -2 2 C-1.34 1.34 -0.68 0.68 0 0 Z " fill="#EEB456" transform="translate(15,38)"/>
<path d="M0 0 C1.32 0.66 2.64 1.32 4 2 C3.34 4.64 2.68 7.28 2 10 C0.35 10 -1.3 10 -3 10 C-2.25 3.375 -2.25 3.375 0 0 Z " fill="#039AE3" transform="translate(11,35)"/>
<path d="M0 0 C-0.36793618 2.66753731 -0.81998328 3.81998328 -2.75 5.75 C-5.37943983 7.21079991 -7.0374441 7.24687966 -10 7 C-9.13375 6.38125 -9.13375 6.38125 -8.25 5.75 C-5.92980716 4.02870249 -5.92980716 4.02870249 -3.875 1.8125 C-2 0 -2 0 0 0 Z " fill="#128AC5" transform="translate(32,31)"/>
<path d="M0 0 C0.33 0.99 0.66 1.98 1 3 C0.67 3.33 0.34 3.66 0 4 C-0.36760731 6.32817964 -0.70241581 8.6618385 -1 11 C-1.66 11 -2.32 11 -3 11 C-3.36923077 4.6 -3.36923077 4.6 -1.5 1.5625 C-1.005 1.046875 -0.51 0.53125 0 0 Z " fill="#5C5C5D" transform="translate(13,23)"/>
<path d="M0 0 C0.99 0 1.98 0 3 0 C2.75 2.375 2.75 2.375 2 5 C-0.0625 6.3125 -0.0625 6.3125 -2 7 C-1.34 4.69 -0.68 2.38 0 0 Z " fill="#F2970B" transform="translate(28,28)"/>
<path d="M0 0 C2.16874252 0.50603992 3.99967627 0.99983813 6 2 C6 3.32 6 4.64 6 6 C4 6 4 6 1.875 4.125 C0 2 0 2 0 0 Z " fill="#ADD7FA" transform="translate(18,25)"/>
</svg>
